<?xml version="1.0" standalone="no"?>
<!DOCTYPE svg PUBLIC "-//W3C//DTD SVG 20010904//EN"
 "http://www.w3.org/TR/2001/REC-SVG-20010904/DTD/svg10.dtd">
<svg version="1.0" xmlns="http://www.w3.org/2000/svg"
 width="1024.000000pt" height="1536.000000pt" viewBox="0 0 1024.000000 1536.000000"
 preserveAspectRatio="xMidYMid meet">

<g transform="translate(0.000000,1536.000000) scale(0.100000,-0.100000)"
fill="#000000" stroke="none">
<path d="M5039 14324 c-19 -8 -44 -29 -55 -47 -18 -31 -19 -57 -22 -567 -2
-495 -1 -538 15 -569 25 -49 64 -74 115 -75 61 -1 100 18 131 67 l28 42 -3
537 c-3 525 -3 537 -24 565 -42 58 -115 76 -185 47z"/>
<path d="M2954 13544 c-71 -24 -105 -89 -89 -171 7 -41 -7 -26 506 -546 l255
-260 50 -4 c40 -4 55 0 84 19 73 50 101 132 62 189 -23 35 -733 757 -752 765
-42 18 -80 20 -116 8z"/>
<path d="M7030 13553 c-16 -3 -152 -132 -383 -363 -196 -197 -371 -375 -387
-395 -56 -70 -29 -175 55 -215 49 -24 76 -25 113 -6 34 18 736 725 762 769 51
82 -7 202 -102 212 -18 2 -44 1 -58 -2z"/>
<path d="M4885 12556 c-237 -57 -371 -120 -1160 -549 -192 -104 -438 -237
-545 -295 -107 -58 -238 -128 -290 -157 -52 -29 -144 -78 -205 -110 -274 -145
-456 -268 -585 -395 -154 -151 -226 -284 -277 -510 -15 -68 -17 -225 -20
-1725 -2 -991 0 -1722 6 -1830 8 -147 15 -203 41 -302 63 -248 158 -436 312
-615 197 -228 369 -364 965 -761 189 -125 387 -263 440 -306 165 -131 254
-247 312 -405 57 -158 63 -205 70 -551 7 -354 9 -366 74 -405 31 -19 58 -20
1112 -20 1054 0 1081 1 1112 20 49 29 63 66 63 164 0 80 -2 88 -29 118 l-29
33 -403 3 -402 3 7 72 c9 100 31 161 74 203 73 71 148 91 394 104 234 12 296
18 388 36 331 66 547 252 615 529 23 93 33 258 23 375 -4 52 -24 158 -43 236
-36 146 -42 193 -26 223 5 9 43 45 84 78 54 45 82 78 106 123 31 58 33 67 29
143 -3 68 -9 93 -36 148 -17 36 -32 76 -32 89 0 14 22 46 59 85 70 76 96 139
89 221 -4 42 -22 89 -81 207 -91 183 -109 236 -109 327 0 86 21 127 77 155 36
18 68 20 350 27 347 7 420 18 523 80 152 93 177 202 98 428 -37 108 -193 469
-326 755 -144 309 -313 699 -397 915 -89 226 -173 495 -268 855 -89 339 -176
562 -338 870 -367 697 -826 1148 -1317 1295 -93 28 -122 32 -255 36 -132 3
-162 1 -250 -20z m479 -361 c205 -69 349 -166 557 -374 212 -213 367 -436 544
-789 151 -300 188 -403 354 -992 138 -488 246 -760 751 -1885 204 -456 208
-469 142 -504 -30 -16 -197 -30 -359 -31 -363 -1 -512 -77 -559 -288 -36 -161
7 -368 123 -594 42 -80 44 -89 34 -121 -14 -41 -54 -81 -103 -102 -50 -20
-184 -51 -326 -74 -65 -11 -196 -33 -292 -49 -236 -40 -267 -45 -255 -34 46
39 203 136 431 267 111 63 187 138 210 207 25 76 15 209 -20 282 -27 55 -74
97 -131 115 -17 5 -77 15 -135 21 -173 19 -196 41 -192 188 3 126 33 311 113
702 124 601 150 768 169 1084 13 209 0 483 -31 643 -64 330 -185 533 -424 711
-81 61 -300 166 -408 197 -193 55 -237 60 -482 60 -201 -1 -243 -3 -334 -23
-383 -84 -847 -326 -1298 -678 -188 -147 -291 -234 -555 -472 -40 -36 -53 -83
-34 -121 22 -41 54 -61 99 -61 35 0 72 23 316 193 465 326 555 386 816 545
119 73 318 172 431 215 333 128 712 141 1028 35 177 -59 322 -144 428 -252
130 -131 210 -319 259 -606 17 -97 17 -444 1 -575 -18 -138 -48 -304 -141
-770 -161 -808 -174 -968 -85 -1096 43 -63 105 -87 257 -99 152 -12 192 -26
212 -74 31 -74 12 -148 -50 -198 -16 -14 -88 -54 -158 -91 -70 -37 -155 -83
-188 -104 -117 -74 -305 -211 -356 -260 -60 -55 -66 -83 -31 -128 l22 -28 165
6 c91 4 202 11 246 16 302 37 564 34 679 -9 210 -79 50 -293 -219 -293 -91 1
-167 19 -393 93 -187 61 -223 68 -256 47 -34 -23 -42 -54 -19 -79 23 -25 77
-53 223 -113 146 -60 202 -78 323 -104 55 -12 112 -28 129 -37 81 -42 157
-266 158 -469 1 -311 -121 -507 -369 -590 -110 -38 -171 -45 -451 -55 -210 -7
-281 -13 -343 -29 -268 -69 -406 -236 -426 -515 l-6 -91 -441 -3 -442 -2 -5
22 c-3 13 -7 75 -8 138 -7 471 -123 777 -398 1050 -154 154 -221 204 -661 498
-463 309 -556 378 -695 517 -161 160 -262 340 -316 558 -37 152 -40 365 -36
2057 3 1423 6 1623 19 1685 53 235 171 373 468 549 114 68 625 349 1315 723
420 228 718 371 895 429 112 36 163 43 300 40 115 -3 147 -7 214 -31z"/>
<path d="M4890 10053 c-260 -41 -487 -128 -730 -279 -188 -116 -390 -296 -390
-347 0 -37 25 -52 155 -92 66 -20 210 -71 320 -112 388 -146 506 -179 698
-195 107 -9 146 -8 248 7 229 32 376 86 544 197 129 85 233 180 264 243 31 63
25 118 -21 188 -158 238 -546 400 -944 396 -66 -1 -130 -4 -144 -6z m495 -294
c169 -54 341 -144 435 -227 l43 -38 -54 -46 c-64 -54 -139 -103 -229 -148 -77
-39 -305 -120 -338 -120 l-24 0 26 30 c97 116 114 361 38 533 -26 58 -25 58
103 16z m-727 -65 c-53 -156 -22 -333 77 -443 21 -22 34 -41 30 -41 -36 0
-707 208 -723 224 -3 4 3 13 14 20 34 25 247 144 314 175 58 27 286 118 301
120 3 1 -3 -24 -13 -55z"/>
<path d="M4024 3255 c-57 -34 -69 -68 -69 -196 0 -103 1 -107 39 -182 102
-197 414 -576 576 -699 79 -60 221 -130 310 -153 100 -25 306 -31 416 -11 305
53 506 198 784 565 74 99 171 249 195 306 68 158 58 306 -26 366 l-34 24
-1075 3 -1075 2 -41 -25z m1919 -335 c-38 -59 -157 -212 -228 -293 -192 -218
-356 -294 -623 -285 -240 8 -348 69 -571 323 -92 104 -221 265 -221 275 0 3
373 5 830 5 l829 0 -16 -25z"/>
</g>
</svg>
